 <svg  version="1.0" xmlns="http://www.w3.org/2000/svg"  width="106.000000pt" height="109.000000pt" viewBox="0 0 106.000000 109.000000"  preserveAspectRatio="xMidYMid meet">  <g transform="translate(0.000000,109.000000) scale(0.100000,-0.100000)" fill="#ffffff" stroke="none"> <path d="M170 963 c-35 -14 -51 -37 -45 -65 4 -15 62 -191 130 -390 99 -289 129 -368 150 -385 23 -20 37 -23 113 -23 105 0 121 9 150 82 40 102 252 719 252 733 0 7 -12 23 -26 34 -22 17 -41 21 -100 21 -115 0 -105 15 -224 -367 -22 -73 -45 -133 -49 -133 -12 0 -12 2 -87 245 -38 122 -74 218 -85 230 -15 15 -35 20 -92 22 -39 1 -79 0 -87 -4z m184 -115 c14 -46 57 -184 95 -308 38 -124 72 -218 75 -210 5 14 68 216 151 483 l36 117 90 0 c50 0 89 -4 87 -9 -1 -5 -64 -183 -138 -395 l-135 -387 -99 3 -99 3 -133 390 c-73 215 -134 391 -134 393 0 1 40 2 89 2 l90 0 25 -82z"/> </g> </svg> 